<mxfile host="app.diagrams.net" agent="Mozilla/5.0 (Windows NT 10.0; Win64; x64) AppleWebKit/537.36 (KHTML, like Gecko) Chrome/133.0.0.0 Safari/537.36" version="26.0.16">
  <diagram id="6a731a19-8d31-9384-78a2-239565b7b9f0" name="Page-1">
    <mxGraphModel dx="1195" dy="615" grid="1" gridSize="10" guides="1" tooltips="1" connect="1" arrows="1" fold="1" page="1" pageScale="1" pageWidth="1169" pageHeight="827" background="none" math="0" shadow="0">
      <root>
        <mxCell id="0" />
        <mxCell id="1" parent="0" />
        <mxCell id="ojH4fEpWJ6uoA2aXLuCC-69" value="" style="edgeStyle=orthogonalEdgeStyle;rounded=0;orthogonalLoop=1;jettySize=auto;html=1;" edge="1" parent="1" source="2" target="ojH4fEpWJ6uoA2aXLuCC-66">
          <mxGeometry relative="1" as="geometry" />
        </mxCell>
        <mxCell id="2" value="Antriebsmontage (Band)" style="shape=mxgraph.flowchart.terminator;strokeWidth=2;gradientColor=none;gradientDirection=north;fontStyle=0;html=1;" parent="1" vertex="1">
          <mxGeometry x="11.5" y="20" width="139" height="40" as="geometry" />
        </mxCell>
        <mxCell id="39" value="issue&#xa;bill of works" style="shape=mxgraph.flowchart.predefined_process;strokeWidth=2;gradientColor=none;gradientDirection=north;fontStyle=0;html=1;" parent="1" vertex="1">
          <mxGeometry x="310" y="1735" width="190" height="90" as="geometry" />
        </mxCell>
        <mxCell id="40" value="end" style="shape=mxgraph.flowchart.terminator;strokeWidth=2;gradientColor=none;gradientDirection=north;fontStyle=0;html=1;" parent="1" vertex="1">
          <mxGeometry x="10" y="1920" width="120" height="30" as="geometry" />
        </mxCell>
        <mxCell id="43" value="" style="edgeStyle=elbowEdgeStyle;elbow=vertical;exitX=0.5;exitY=1;exitPerimeter=0;entryX=0.5;entryY=0;entryPerimeter=0;fontStyle=1;strokeColor=#003366;strokeWidth=1;html=1;" parent="1" target="40" edge="1">
          <mxGeometry width="100" height="100" as="geometry">
            <mxPoint x="70" y="1820" as="sourcePoint" />
            <mxPoint x="-150" y="10" as="targetPoint" />
          </mxGeometry>
        </mxCell>
        <mxCell id="44" value="" style="edgeStyle=elbowEdgeStyle;elbow=vertical;exitX=0.905;exitY=0.5;exitPerimeter=0;entryX=0;entryY=0.5;entryPerimeter=0;fontStyle=1;strokeColor=#003366;strokeWidth=1;html=1;" parent="1" target="39" edge="1">
          <mxGeometry width="100" height="100" as="geometry">
            <mxPoint x="134.39499999999998" y="1780" as="sourcePoint" />
            <mxPoint x="-150" y="10" as="targetPoint" />
          </mxGeometry>
        </mxCell>
        <mxCell id="ojH4fEpWJ6uoA2aXLuCC-68" value="" style="edgeStyle=orthogonalEdgeStyle;rounded=0;orthogonalLoop=1;jettySize=auto;html=1;" edge="1" parent="1" source="ojH4fEpWJ6uoA2aXLuCC-66" target="ojH4fEpWJ6uoA2aXLuCC-67">
          <mxGeometry relative="1" as="geometry" />
        </mxCell>
        <mxCell id="ojH4fEpWJ6uoA2aXLuCC-66" value="Handradmontage" style="rounded=0;whiteSpace=wrap;html=1;" vertex="1" parent="1">
          <mxGeometry x="21" y="100" width="119" height="30" as="geometry" />
        </mxCell>
        <mxCell id="ojH4fEpWJ6uoA2aXLuCC-71" value="" style="edgeStyle=orthogonalEdgeStyle;rounded=0;orthogonalLoop=1;jettySize=auto;html=1;" edge="1" parent="1" source="ojH4fEpWJ6uoA2aXLuCC-67" target="ojH4fEpWJ6uoA2aXLuCC-70">
          <mxGeometry relative="1" as="geometry" />
        </mxCell>
        <mxCell id="ojH4fEpWJ6uoA2aXLuCC-67" value="Spindelmuttereinheit" style="rounded=0;whiteSpace=wrap;html=1;" vertex="1" parent="1">
          <mxGeometry x="21.5" y="150" width="119" height="30" as="geometry" />
        </mxCell>
        <mxCell id="ojH4fEpWJ6uoA2aXLuCC-73" value="" style="edgeStyle=orthogonalEdgeStyle;rounded=0;orthogonalLoop=1;jettySize=auto;html=1;" edge="1" parent="1" source="ojH4fEpWJ6uoA2aXLuCC-70" target="ojH4fEpWJ6uoA2aXLuCC-72">
          <mxGeometry relative="1" as="geometry" />
        </mxCell>
        <mxCell id="ojH4fEpWJ6uoA2aXLuCC-70" value="Getriebe" style="whiteSpace=wrap;html=1;rounded=0;" vertex="1" parent="1">
          <mxGeometry x="21.5" y="200" width="119" height="30" as="geometry" />
        </mxCell>
        <mxCell id="ojH4fEpWJ6uoA2aXLuCC-75" value="" style="edgeStyle=orthogonalEdgeStyle;rounded=0;orthogonalLoop=1;jettySize=auto;html=1;" edge="1" parent="1" source="ojH4fEpWJ6uoA2aXLuCC-72" target="ojH4fEpWJ6uoA2aXLuCC-74">
          <mxGeometry relative="1" as="geometry" />
        </mxCell>
        <mxCell id="ojH4fEpWJ6uoA2aXLuCC-72" value="Zwischenboden" style="whiteSpace=wrap;html=1;rounded=0;" vertex="1" parent="1">
          <mxGeometry x="21" y="260" width="119" height="30" as="geometry" />
        </mxCell>
        <mxCell id="ojH4fEpWJ6uoA2aXLuCC-77" value="" style="edgeStyle=orthogonalEdgeStyle;rounded=0;orthogonalLoop=1;jettySize=auto;html=1;" edge="1" parent="1" source="ojH4fEpWJ6uoA2aXLuCC-74" target="ojH4fEpWJ6uoA2aXLuCC-76">
          <mxGeometry relative="1" as="geometry" />
        </mxCell>
        <mxCell id="ojH4fEpWJ6uoA2aXLuCC-74" value="Motormontage" style="whiteSpace=wrap;html=1;rounded=0;" vertex="1" parent="1">
          <mxGeometry x="21.5" y="310" width="119" height="30" as="geometry" />
        </mxCell>
        <mxCell id="ojH4fEpWJ6uoA2aXLuCC-114" value="" style="edgeStyle=orthogonalEdgeStyle;rounded=0;orthogonalLoop=1;jettySize=auto;html=1;" edge="1" parent="1" source="ojH4fEpWJ6uoA2aXLuCC-76" target="ojH4fEpWJ6uoA2aXLuCC-113">
          <mxGeometry relative="1" as="geometry" />
        </mxCell>
        <mxCell id="ojH4fEpWJ6uoA2aXLuCC-76" value="Einbau Platinenträger" style="whiteSpace=wrap;html=1;rounded=0;" vertex="1" parent="1">
          <mxGeometry x="21" y="440" width="119" height="30" as="geometry" />
        </mxCell>
        <mxCell id="ojH4fEpWJ6uoA2aXLuCC-87" value="" style="edgeStyle=orthogonalEdgeStyle;rounded=0;orthogonalLoop=1;jettySize=auto;html=1;" edge="1" parent="1" source="ojH4fEpWJ6uoA2aXLuCC-80" target="ojH4fEpWJ6uoA2aXLuCC-84">
          <mxGeometry relative="1" as="geometry">
            <Array as="points">
              <mxPoint x="440" y="165" />
            </Array>
          </mxGeometry>
        </mxCell>
        <mxCell id="ojH4fEpWJ6uoA2aXLuCC-89" value="" style="edgeStyle=orthogonalEdgeStyle;rounded=0;orthogonalLoop=1;jettySize=auto;html=1;" edge="1" parent="1" source="ojH4fEpWJ6uoA2aXLuCC-80" target="ojH4fEpWJ6uoA2aXLuCC-86">
          <mxGeometry relative="1" as="geometry">
            <Array as="points">
              <mxPoint x="545" y="215" />
              <mxPoint x="642" y="215" />
            </Array>
          </mxGeometry>
        </mxCell>
        <mxCell id="ojH4fEpWJ6uoA2aXLuCC-90" value="" style="edgeStyle=orthogonalEdgeStyle;rounded=0;orthogonalLoop=1;jettySize=auto;html=1;" edge="1" parent="1" source="ojH4fEpWJ6uoA2aXLuCC-80" target="ojH4fEpWJ6uoA2aXLuCC-88">
          <mxGeometry relative="1" as="geometry">
            <Array as="points">
              <mxPoint x="545" y="214" />
              <mxPoint x="515" y="214" />
            </Array>
          </mxGeometry>
        </mxCell>
        <mxCell id="ojH4fEpWJ6uoA2aXLuCC-80" value="Baugruppenmontage" style="shape=mxgraph.flowchart.terminator;strokeWidth=2;gradientColor=none;gradientDirection=north;fontStyle=0;html=1;" vertex="1" parent="1">
          <mxGeometry x="485" y="150" width="120" height="30" as="geometry" />
        </mxCell>
        <mxCell id="ojH4fEpWJ6uoA2aXLuCC-92" value="" style="edgeStyle=orthogonalEdgeStyle;rounded=0;orthogonalLoop=1;jettySize=auto;html=1;" edge="1" parent="1" source="ojH4fEpWJ6uoA2aXLuCC-84" target="ojH4fEpWJ6uoA2aXLuCC-91">
          <mxGeometry relative="1" as="geometry" />
        </mxCell>
        <mxCell id="ojH4fEpWJ6uoA2aXLuCC-84" value="Platinenträger" style="whiteSpace=wrap;html=1;strokeWidth=1;gradientColor=none;gradientDirection=north;fontStyle=0;" vertex="1" parent="1">
          <mxGeometry x="200" y="390" width="260" height="30" as="geometry" />
        </mxCell>
        <mxCell id="ojH4fEpWJ6uoA2aXLuCC-126" style="edgeStyle=orthogonalEdgeStyle;rounded=0;orthogonalLoop=1;jettySize=auto;html=1;" edge="1" parent="1" source="ojH4fEpWJ6uoA2aXLuCC-86" target="ojH4fEpWJ6uoA2aXLuCC-120">
          <mxGeometry relative="1" as="geometry">
            <Array as="points">
              <mxPoint x="620" y="565" />
            </Array>
          </mxGeometry>
        </mxCell>
        <mxCell id="ojH4fEpWJ6uoA2aXLuCC-86" value="Heizung" style="whiteSpace=wrap;html=1;" vertex="1" parent="1">
          <mxGeometry x="592" y="250" width="100" height="20" as="geometry" />
        </mxCell>
        <mxCell id="ojH4fEpWJ6uoA2aXLuCC-125" style="edgeStyle=orthogonalEdgeStyle;rounded=0;orthogonalLoop=1;jettySize=auto;html=1;" edge="1" parent="1" source="ojH4fEpWJ6uoA2aXLuCC-88" target="ojH4fEpWJ6uoA2aXLuCC-120">
          <mxGeometry relative="1" as="geometry">
            <Array as="points">
              <mxPoint x="490" y="550" />
            </Array>
          </mxGeometry>
        </mxCell>
        <mxCell id="ojH4fEpWJ6uoA2aXLuCC-88" value="Huberfassung" style="whiteSpace=wrap;html=1;" vertex="1" parent="1">
          <mxGeometry x="477" y="250" width="93" height="22.5" as="geometry" />
        </mxCell>
        <mxCell id="ojH4fEpWJ6uoA2aXLuCC-109" style="edgeStyle=orthogonalEdgeStyle;rounded=0;orthogonalLoop=1;jettySize=auto;html=1;entryX=1;entryY=0.5;entryDx=0;entryDy=0;" edge="1" parent="1" source="ojH4fEpWJ6uoA2aXLuCC-91" target="ojH4fEpWJ6uoA2aXLuCC-76">
          <mxGeometry relative="1" as="geometry" />
        </mxCell>
        <mxCell id="ojH4fEpWJ6uoA2aXLuCC-91" value="(Netzteil und Trafo)" style="whiteSpace=wrap;html=1;strokeWidth=1;gradientColor=none;gradientDirection=north;fontStyle=0;" vertex="1" parent="1">
          <mxGeometry x="190" y="440" width="110" height="30" as="geometry" />
        </mxCell>
        <mxCell id="ojH4fEpWJ6uoA2aXLuCC-97" value="" style="edgeStyle=orthogonalEdgeStyle;rounded=0;orthogonalLoop=1;jettySize=auto;html=1;" edge="1" parent="1" source="ojH4fEpWJ6uoA2aXLuCC-93" target="ojH4fEpWJ6uoA2aXLuCC-96">
          <mxGeometry relative="1" as="geometry">
            <Array as="points">
              <mxPoint x="300" y="80" />
              <mxPoint x="210" y="80" />
            </Array>
          </mxGeometry>
        </mxCell>
        <mxCell id="ojH4fEpWJ6uoA2aXLuCC-102" value="" style="edgeStyle=orthogonalEdgeStyle;rounded=0;orthogonalLoop=1;jettySize=auto;html=1;" edge="1" parent="1" source="ojH4fEpWJ6uoA2aXLuCC-93" target="ojH4fEpWJ6uoA2aXLuCC-98">
          <mxGeometry relative="1" as="geometry" />
        </mxCell>
        <mxCell id="ojH4fEpWJ6uoA2aXLuCC-127" style="edgeStyle=orthogonalEdgeStyle;rounded=0;orthogonalLoop=1;jettySize=auto;html=1;" edge="1" parent="1" source="ojH4fEpWJ6uoA2aXLuCC-93" target="ojH4fEpWJ6uoA2aXLuCC-99">
          <mxGeometry relative="1" as="geometry">
            <Array as="points">
              <mxPoint x="300" y="80" />
              <mxPoint x="390" y="80" />
            </Array>
          </mxGeometry>
        </mxCell>
        <mxCell id="ojH4fEpWJ6uoA2aXLuCC-93" value="Zulieferer" style="shape=mxgraph.flowchart.terminator;strokeWidth=2;gradientColor=none;gradientDirection=north;fontStyle=0;html=1;" vertex="1" parent="1">
          <mxGeometry x="240" y="20" width="120" height="30" as="geometry" />
        </mxCell>
        <mxCell id="ojH4fEpWJ6uoA2aXLuCC-106" value="" style="edgeStyle=orthogonalEdgeStyle;rounded=0;orthogonalLoop=1;jettySize=auto;html=1;" edge="1" parent="1" source="ojH4fEpWJ6uoA2aXLuCC-96" target="ojH4fEpWJ6uoA2aXLuCC-84">
          <mxGeometry relative="1" as="geometry">
            <Array as="points">
              <mxPoint x="210" y="290" />
              <mxPoint x="210" y="290" />
            </Array>
          </mxGeometry>
        </mxCell>
        <mxCell id="ojH4fEpWJ6uoA2aXLuCC-96" value="Testgerät 1" style="whiteSpace=wrap;html=1;strokeWidth=1;gradientColor=none;gradientDirection=north;fontStyle=0;" vertex="1" parent="1">
          <mxGeometry x="170" y="115" width="80" height="30" as="geometry" />
        </mxCell>
        <mxCell id="ojH4fEpWJ6uoA2aXLuCC-107" style="edgeStyle=orthogonalEdgeStyle;rounded=0;orthogonalLoop=1;jettySize=auto;html=1;" edge="1" parent="1" source="ojH4fEpWJ6uoA2aXLuCC-98" target="ojH4fEpWJ6uoA2aXLuCC-84">
          <mxGeometry relative="1" as="geometry">
            <Array as="points">
              <mxPoint x="300" y="360" />
              <mxPoint x="300" y="360" />
            </Array>
          </mxGeometry>
        </mxCell>
        <mxCell id="ojH4fEpWJ6uoA2aXLuCC-98" value="Testgerät 2" style="whiteSpace=wrap;html=1;strokeWidth=1;gradientColor=none;gradientDirection=north;fontStyle=0;" vertex="1" parent="1">
          <mxGeometry x="257.5" y="115" width="85" height="30" as="geometry" />
        </mxCell>
        <mxCell id="ojH4fEpWJ6uoA2aXLuCC-129" style="edgeStyle=orthogonalEdgeStyle;rounded=0;orthogonalLoop=1;jettySize=auto;html=1;" edge="1" parent="1" source="ojH4fEpWJ6uoA2aXLuCC-99" target="ojH4fEpWJ6uoA2aXLuCC-120">
          <mxGeometry relative="1" as="geometry">
            <mxPoint x="730" y="560" as="targetPoint" />
            <Array as="points">
              <mxPoint x="730" y="130" />
            </Array>
          </mxGeometry>
        </mxCell>
        <mxCell id="ojH4fEpWJ6uoA2aXLuCC-99" value="Testgerät 3" style="whiteSpace=wrap;html=1;strokeWidth=1;gradientColor=none;gradientDirection=north;fontStyle=0;" vertex="1" parent="1">
          <mxGeometry x="350" y="115" width="80" height="30" as="geometry" />
        </mxCell>
        <mxCell id="ojH4fEpWJ6uoA2aXLuCC-118" value="" style="edgeStyle=orthogonalEdgeStyle;rounded=0;orthogonalLoop=1;jettySize=auto;html=1;" edge="1" parent="1" source="ojH4fEpWJ6uoA2aXLuCC-113" target="ojH4fEpWJ6uoA2aXLuCC-117">
          <mxGeometry relative="1" as="geometry" />
        </mxCell>
        <mxCell id="ojH4fEpWJ6uoA2aXLuCC-119" value="Nein" style="edgeLabel;html=1;align=center;verticalAlign=middle;resizable=0;points=[];" vertex="1" connectable="0" parent="ojH4fEpWJ6uoA2aXLuCC-118">
          <mxGeometry x="-0.2964" relative="1" as="geometry">
            <mxPoint as="offset" />
          </mxGeometry>
        </mxCell>
        <mxCell id="ojH4fEpWJ6uoA2aXLuCC-121" value="" style="edgeStyle=orthogonalEdgeStyle;rounded=0;orthogonalLoop=1;jettySize=auto;html=1;" edge="1" parent="1" source="ojH4fEpWJ6uoA2aXLuCC-113" target="ojH4fEpWJ6uoA2aXLuCC-120">
          <mxGeometry relative="1" as="geometry" />
        </mxCell>
        <mxCell id="ojH4fEpWJ6uoA2aXLuCC-122" value="Ja" style="edgeLabel;html=1;align=center;verticalAlign=middle;resizable=0;points=[];" vertex="1" connectable="0" parent="ojH4fEpWJ6uoA2aXLuCC-121">
          <mxGeometry x="-0.1872" relative="1" as="geometry">
            <mxPoint as="offset" />
          </mxGeometry>
        </mxCell>
        <mxCell id="ojH4fEpWJ6uoA2aXLuCC-113" value="Option benötigt?" style="rhombus;whiteSpace=wrap;html=1;rounded=0;" vertex="1" parent="1">
          <mxGeometry x="40.5" y="525" width="80" height="80" as="geometry" />
        </mxCell>
        <mxCell id="ojH4fEpWJ6uoA2aXLuCC-117" value="Lager" style="shape=mxgraph.flowchart.terminator;strokeWidth=2;gradientColor=none;gradientDirection=north;fontStyle=0;html=1;" vertex="1" parent="1">
          <mxGeometry x="20" y="650" width="120" height="30" as="geometry" />
        </mxCell>
        <mxCell id="ojH4fEpWJ6uoA2aXLuCC-120" value="Optionsarbeitsplatz" style="whiteSpace=wrap;html=1;" vertex="1" parent="1">
          <mxGeometry x="477" y="541.25" width="303" height="48.75" as="geometry" />
        </mxCell>
      </root>
    </mxGraphModel>
  </diagram>
</mxfile>
